<svg version="1.0" xmlns="http://www.w3.org/2000/svg"
 width="1600.000000pt" height="2095.000000pt" viewBox="0 0 1600.000000 2095.000000"
 preserveAspectRatio="xMidYMid meet">

<g transform="translate(0.000000,2095.000000) scale(0.100000,-0.100000)"
fill="#ffffff" stroke="none">
<path d="M11100 20924 c-113 -49 -191 -187 -150 -265 6 -10 45 -38 88 -61 110
-60 219 -173 299 -308 94 -161 211 -392 218 -433 6 -32 4 -42 -15 -62 -31 -33
-99 -65 -137 -65 -61 0 -168 102 -268 254 -53 81 -67 94 -118 120 -73 37 -186
47 -234 22 -39 -20 -68 -66 -88 -142 -22 -86 -3 -161 101 -387 35 -75 64 -141
64 -145 0 -4 -62 -73 -137 -152 -132 -137 -208 -200 -243 -200 -23 0 -56 37
-80 93 -20 44 -21 59 -14 185 6 136 6 138 -23 212 -38 97 -140 270 -147 250
-22 -60 -59 -252 -65 -335 -9 -125 -42 -207 -109 -265 -38 -34 -104 -61 -117
-48 -2 2 11 64 30 138 82 325 86 472 14 585 -38 60 -90 85 -179 85 -80 0 -150
-30 -197 -84 -65 -74 -82 -128 -93 -301 -8 -135 -37 -344 -50 -358 -4 -5 -56
47 -115 115 -250 290 -293 328 -413 369 -65 23 -125 25 -312 14 -164 -9 -223
3 -350 73 l-85 46 -260 3 c-143 2 -318 8 -390 13 -103 7 -151 6 -232 -6 -56
-8 -125 -14 -154 -12 -82 5 -91 24 -101 205 -8 135 -12 154 -40 216 -19 41
-48 83 -74 107 -39 36 -49 40 -94 40 -45 0 -55 -4 -91 -37 -54 -52 -75 -118
-101 -323 -18 -138 -25 -170 -37 -170 -9 0 -92 20 -186 45 -189 50 -257 55
-320 26 -87 -41 -166 -161 -167 -254 -1 -97 36 -150 192 -277 52 -43 112 -95
132 -116 47 -51 110 -146 100 -155 -4 -3 -56 -23 -117 -43 l-109 -36 -36 24
c-19 13 -84 66 -145 118 -429 367 -1034 863 -1079 884 -104 48 -174 18 -216
-94 -29 -77 -25 -212 9 -290 43 -97 163 -189 430 -331 85 -45 175 -97 201
-116 90 -66 161 -159 195 -254 l15 -43 -28 17 c-36 24 -92 67 -175 136 -128
107 -256 159 -392 159 -173 0 -287 -58 -570 -290 -82 -68 -176 -140 -208 -161
-137 -89 -190 -64 -348 168 -102 149 -219 280 -337 374 -160 129 -457 310
-570 348 -161 54 -376 -6 -453 -127 -41 -65 -53 -115 -37 -149 18 -37 89 -79
167 -99 63 -16 69 -15 182 7 104 20 124 21 174 10 128 -29 284 -175 321 -300
44 -146 -32 -308 -179 -383 -21 -10 -133 -44 -247 -73 -223 -58 -311 -92 -392
-152 -109 -79 -178 -217 -178 -352 1 -140 34 -214 201 -447 67 -93 123 -174
126 -181 5 -13 17 -10 -392 -88 -332 -64 -353 -69 -415 -100 -72 -37 -110 -94
-110 -164 0 -48 30 -144 73 -235 37 -80 42 -97 40 -157 -2 -85 -20 -122 -73
-143 -46 -18 -126 -21 -167 -5 -40 15 -67 42 -230 237 -80 94 -149 172 -153
172 -4 0 -19 -17 -32 -38 -14 -21 -78 -100 -143 -177 -140 -167 -189 -237
-229 -330 -27 -62 -30 -81 -31 -170 0 -79 5 -115 24 -174 l24 -73 -88 -266
c-67 -199 -109 -306 -168 -426 -93 -190 -131 -299 -146 -422 -18 -148 6 -282
76 -432 27 -58 36 -90 37 -132 0 -67 -16 -99 -88 -177 -94 -102 -126 -191
-126 -352 0 -189 -48 -329 -150 -443 -57 -64 -80 -111 -80 -162 0 -75 38 -124
178 -228 52 -38 129 -105 171 -148 42 -43 86 -83 98 -89 31 -16 70 -14 125 6
43 15 49 15 91 -1 106 -40 157 -98 263 -296 64 -122 65 -125 49 -150 -9 -14
-32 -58 -52 -97 -39 -80 -46 -156 -23 -230 17 -52 102 -217 144 -278 l34 -50
-99 -196 c-60 -119 -125 -232 -164 -285 -136 -185 -172 -317 -126 -474 10 -36
174 -400 363 -810 582 -1256 756 -1621 1163 -2445 444 -899 619 -1270 800
-1700 226 -539 399 -1046 520 -1525 37 -147 70 -249 130 -405 19 -49 222 -721
450 -1492 228 -771 421 -1415 429 -1431 30 -58 74 -65 242 -41 199 27 378 40
474 33 153 -11 315 27 428 102 84 56 171 152 242 269 81 134 136 203 180 229
70 41 197 18 428 -76 107 -44 123 -54 128 -77 11 -53 57 -137 152 -272 120
-171 209 -319 304 -503 61 -117 85 -153 143 -212 87 -89 150 -119 345 -169
195 -49 256 -67 455 -132 277 -91 366 -87 605 27 166 79 184 81 297 36 143
-57 215 -70 403 -70 91 0 201 6 245 12 232 37 471 86 555 113 187 60 412 185
575 319 136 113 381 373 729 775 413 477 635 683 923 855 172 103 356 251 429
345 34 44 370 476 746 960 751 968 799 1031 802 1052 1 7 17 23 35 34 18 11
40 34 49 51 9 17 26 41 38 53 144 152 753 930 790 1010 15 31 24 69 24 100 0
51 -52 318 -110 565 -17 74 -35 173 -40 219 -7 77 -5 89 16 135 28 61 32 147
9 222 -8 27 -29 117 -46 199 -27 128 -32 171 -32 295 0 123 4 163 28 265 31
135 30 184 -5 379 -24 130 -26 273 -5 342 31 103 11 187 -69 286 -109 135
-137 230 -142 478 -1 96 -3 187 -3 202 -2 53 -51 92 -168 133 -216 74 -358
195 -443 378 -58 124 -197 616 -231 817 -7 44 -13 167 -13 295 -1 280 -2 281
-131 287 -48 3 -51 5 -82 53 -18 27 -33 53 -33 56 0 4 57 44 126 89 142 94
223 126 536 215 201 58 238 73 262 107 33 47 24 67 -131 282 -88 121 -112 161
-102 167 8 5 116 68 242 140 125 72 227 135 227 140 0 4 -20 20 -45 34 -31 19
-74 31 -147 42 -195 29 -239 79 -216 247 10 70 9 76 -16 132 -15 33 -43 76
-63 96 -33 33 -48 40 -162 67 -69 17 -243 53 -386 79 -257 49 -339 74 -374
115 -14 18 -10 48 26 192 16 63 26 130 27 180 1 94 -12 126 -132 331 l-76 131
-91 7 c-359 27 -448 149 -401 553 l17 143 -61 132 c-33 73 -74 149 -90 169
l-29 36 14 59 c24 101 42 141 104 228 66 93 377 580 425 666 26 46 31 66 31
120 -1 77 -14 105 -85 183 -27 30 -57 72 -66 92 -14 34 -13 40 3 73 15 30 33
44 101 78 130 64 126 57 102 194 -28 155 -44 208 -94 309 -79 158 -97 258 -61
335 32 67 83 107 276 216 34 19 94 63 134 97 69 59 409 441 449 505 19 30 19
36 3 217 -14 161 -14 196 -2 261 21 117 27 140 36 146 18 11 166 -39 247 -83
149 -81 203 -63 277 92 72 151 102 175 287 229 230 67 452 51 658 -47 56 -27
76 -31 150 -31 69 -1 93 3 126 21 49 26 97 93 113 158 11 45 10 48 -72 243
-108 252 -360 802 -368 802 -3 0 -35 -40 -70 -90 -34 -49 -65 -90 -67 -90 -3
0 -34 28 -70 61 -128 120 -255 153 -422 110 -91 -24 -127 -21 -174 12 -51 36
-66 88 -73 261 -3 85 -9 160 -13 167 -5 7 -29 -6 -75 -42 -49 -38 -73 -65 -87
-98 -68 -158 -162 -180 -320 -74 -63 42 -93 53 -149 53 -75 0 -118 -28 -205
-132 -140 -168 -146 -221 -44 -373 47 -69 127 -207 209 -358 l43 -77 -49 19
c-26 10 -83 33 -126 50 -43 17 -110 40 -150 51 -195 54 -258 1 -330 -277 -12
-46 -24 -83 -27 -83 -3 0 -40 88 -84 195 -43 107 -83 195 -89 195 -6 0 -62 -7
-124 -16 -213 -31 -254 -6 -412 255 -159 260 -209 314 -355 382 -66 31 -75 33
-205 35 -237 3 -312 37 -511 230 -195 188 -268 234 -375 233 -33 0 -76 -7 -95
-15z"/>
</g>
</svg>
